<?xml version="1.0" encoding="utf-8"?>
<!-- Generator: Adobe Illustrator 25.1.0, SVG Export Plug-In . SVG Version: 6.00 Build 0)  -->
<!DOCTYPE svg PUBLIC "-//W3C//DTD SVG 1.1//EN" "http://www.w3.org/Graphics/SVG/1.1/DTD/svg11.dtd" [
	<!ENTITY ns_extend "http://ns.adobe.com/Extensibility/1.0/">
	<!ENTITY ns_ai "http://ns.adobe.com/AdobeIllustrator/10.0/">
	<!ENTITY ns_graphs "http://ns.adobe.com/Graphs/1.0/">
	<!ENTITY ns_vars "http://ns.adobe.com/Variables/1.0/">
	<!ENTITY ns_imrep "http://ns.adobe.com/ImageReplacement/1.0/">
	<!ENTITY ns_sfw "http://ns.adobe.com/SaveForWeb/1.0/">
	<!ENTITY ns_custom "http://ns.adobe.com/GenericCustomNamespace/1.0/">
	<!ENTITY ns_adobe_xpath "http://ns.adobe.com/XPath/1.0/">
]>
<svg version="1.1" id="Calque_1" xmlns:x="&ns_extend;" xmlns:i="&ns_ai;" xmlns:graph="&ns_graphs;"
	 xmlns="http://www.w3.org/2000/svg" xmlns:xlink="http://www.w3.org/1999/xlink" x="0px" y="0px" viewBox="0 0 154.5 148.3"
	 style="enable-background:new 0 0 154.5 148.3;" xml:space="preserve">
<style type="text/css">
	.st0{display:none;}
	.st1{display:inline;}
	.st2{opacity:0.9;}
	.st3{fill:#535353;}
	.st4{fill:#15449D;}
</style>
<metadata>
	<sfw  xmlns="&ns_sfw;">
		<slices></slices>
		<sliceSourceBounds  bottomLeftOrigin="true" height="376.9" width="321.5" x="-14.2" y="239.5"></sliceSourceBounds>
	</sfw>
</metadata>
<g class="st0">
	<g class="st1">
		<defs>
			<rect id="SVGID_1_" x="-62.6" y="14.5" width="283" height="121"/>
		</defs>
		<clipPath id="SVGID_2_">
			<use xlink:href="#SVGID_1_"  style="overflow:visible;"/>
		</clipPath>
		<g transform="matrix(1 0 0 1 -3.814697e-06 -9.536743e-07)" style="clip-path:url(#SVGID_2_);">
			
				<image style="overflow:visible;" width="332" height="142" xlink:href="4396AF8AEB98CF68.png"  transform="matrix(0.8524 0 0 0.8524 -62.6259 14.4991)">
			</image>
		</g>
	</g>
</g>
<g>
	<g>
		<g class="st2">
			<g>
				<defs>
					<rect id="SVGID_3_" x="-101.1" y="383.4" width="24.5" height="8"/>
				</defs>
				<clipPath id="SVGID_4_">
					<use xlink:href="#SVGID_3_"  style="overflow:visible;"/>
				</clipPath>
			</g>
		</g>
		<path class="st3" d="M23.6,87c0-0.1,0.1-0.2,0.2-0.2h0.2c0.1,0,0.2,0.1,0.2,0.1l2.7,7.4h0.1l2.6-7.4c0-0.1,0.1-0.1,0.2-0.1h0.2
			c0.1,0,0.2,0.1,0.2,0.2l1.8,9.1c0,0.2,0,0.3-0.2,0.3h-0.5c-0.1,0-0.2-0.1-0.2-0.2l-1.2-7h-0.1l-2.5,7.1c0,0.1-0.1,0.1-0.2,0.1
			h-0.2c-0.1,0-0.2-0.1-0.2-0.1l-2.5-7.1h-0.1l-1.2,7c0,0.1-0.1,0.2-0.2,0.2h-0.5c-0.2,0-0.3-0.1-0.2-0.3L23.6,87z"/>
		<path class="st3" d="M40.5,95.6c2.2,0,3.9-1.8,3.9-3.9s-1.8-3.9-3.9-3.9c-2.2,0-3.9,1.8-3.9,3.9S38.3,95.6,40.5,95.6 M40.5,86.8
			c2.7,0,4.9,2.2,4.9,4.9c0,2.7-2.2,4.8-4.9,4.8c-2.7,0-4.9-2.1-4.9-4.8C35.6,89,37.8,86.8,40.5,86.8"/>
		<path class="st3" d="M49.5,87.2c0-0.1,0.1-0.3,0.3-0.3h0.5c0.1,0,0.3,0.1,0.3,0.3v3.9H56v-3.9c0-0.1,0.1-0.3,0.3-0.3h0.5
			c0.1,0,0.3,0.1,0.3,0.3v8.9c0,0.1-0.1,0.3-0.3,0.3h-0.5c-0.1,0-0.3-0.1-0.3-0.3v-4.1h-5.5v4.1c0,0.1-0.1,0.3-0.3,0.3h-0.5
			c-0.1,0-0.3-0.1-0.3-0.3V87.2z"/>
		<path class="st3" d="M67,93.2c-0.7-1.5-1.3-3-2-4.4h-0.1l-2,4.4H67z M60.6,96.1l4.1-9.1c0-0.1,0.1-0.1,0.2-0.1h0.1
			c0.1,0,0.2,0.1,0.2,0.1l4.1,9.1c0.1,0.2,0,0.4-0.2,0.4h-0.5c-0.1,0-0.2-0.1-0.2-0.1l-1-2.2h-4.8l-1,2.2c0,0.1-0.1,0.1-0.2,0.1
			h-0.5C60.6,96.4,60.5,96.3,60.6,96.1"/>
		<path class="st3" d="M74,87c0-0.1,0.1-0.2,0.2-0.2h0.2c0.1,0,0.2,0.1,0.2,0.1l2.7,7.4h0.1l2.6-7.4c0-0.1,0.1-0.1,0.2-0.1h0.2
			c0.1,0,0.2,0.1,0.2,0.2l1.8,9.1c0,0.2,0,0.3-0.2,0.3h-0.5c-0.1,0-0.2-0.1-0.2-0.2l-1.2-7h-0.1l-2.5,7.1c0,0.1-0.1,0.1-0.2,0.1
			h-0.2c-0.1,0-0.2-0.1-0.2-0.1l-2.5-7.1h-0.1l-1.2,7c0,0.1-0.1,0.2-0.2,0.2h-0.5c-0.2,0-0.3-0.1-0.2-0.3L74,87z"/>
		<path class="st3" d="M87.7,87c0-0.1,0.1-0.2,0.2-0.2h0.2c0.1,0,0.2,0.1,0.2,0.1l2.7,7.4h0.1l2.6-7.4c0-0.1,0.1-0.1,0.2-0.1h0.2
			c0.1,0,0.2,0.1,0.2,0.2l1.8,9.1c0,0.2,0,0.3-0.2,0.3h-0.5c-0.1,0-0.2-0.1-0.2-0.2l-1.2-7H94l-2.5,7.1c0,0.1-0.1,0.1-0.2,0.1H91
			c-0.1,0-0.2-0.1-0.2-0.1l-2.5-7.1h-0.1l-1.2,7c0,0.1-0.1,0.2-0.2,0.2h-0.5c-0.2,0-0.3-0.1-0.2-0.3L87.7,87z"/>
		<path class="st3" d="M100.4,87.2c0-0.1,0.1-0.3,0.3-0.3h5.3c0.2,0,0.3,0.1,0.3,0.3v0.4c0,0.1-0.1,0.3-0.3,0.3h-4.6v3.3h3.9
			c0.1,0,0.3,0.1,0.3,0.3v0.4c0,0.1-0.1,0.3-0.3,0.3h-3.9v3.4h4.6c0.2,0,0.3,0.1,0.3,0.3v0.4c0,0.1-0.1,0.3-0.3,0.3h-5.3
			c-0.2,0-0.3-0.1-0.3-0.3V87.2z"/>
		<path class="st3" d="M113.6,95.5c2.2,0,3.8-1.6,3.8-3.8c0-2.2-1.6-3.8-3.8-3.8h-2v7.6H113.6z M110.5,87.2c0-0.1,0.1-0.3,0.2-0.3h3
			c2.6,0,4.8,2.1,4.8,4.7c0,2.6-2.1,4.7-4.8,4.7h-3c-0.1,0-0.2-0.1-0.2-0.3V87.2z"/>
		<path class="st3" d="M124.6,87.3c-0.1-0.2,0-0.4,0.2-0.4h0.5c0.1,0,0.2,0.1,0.2,0.1l3.4,7.6h0.1l3.4-7.6c0-0.1,0.1-0.1,0.2-0.1
			h0.5c0.2,0,0.3,0.2,0.2,0.4l-4.1,9.1c0,0.1-0.1,0.1-0.2,0.1h-0.1c-0.1,0-0.2-0.1-0.2-0.1L124.6,87.3z"/>
		<path class="st3" d="M137.2,87.2c0-0.1,0.1-0.3,0.3-0.3h0.5c0.1,0,0.3,0.1,0.3,0.3v8.9c0,0.1-0.1,0.3-0.3,0.3h-0.5
			c-0.1,0-0.3-0.1-0.3-0.3V87.2z"/>
		<path class="st3" d="M24,102.3c0.6,0,1-0.5,1-1c0-0.5-0.5-1-1-1h-1.1v2H24z M22.4,99.9c0-0.1,0.1-0.1,0.1-0.1H24
			c0.8,0,1.5,0.7,1.5,1.5c0,0.8-0.7,1.5-1.5,1.5h-1.1v1.6c0,0.1-0.1,0.1-0.1,0.1h-0.3c-0.1,0-0.1-0.1-0.1-0.1V99.9z"/>
		<path class="st3" d="M35.6,104.1c1.1,0,2-0.9,2-1.9c0-1.1-0.9-2-2-2c-1.1,0-2,0.9-2,2C33.7,103.2,34.6,104.1,35.6,104.1
			 M35.6,99.7c1.4,0,2.4,1.1,2.4,2.4c0,1.3-1.1,2.4-2.4,2.4c-1.4,0-2.4-1.1-2.4-2.4C33.2,100.8,34.3,99.7,35.6,99.7"/>
		<path class="st3" d="M46.2,99.9c0-0.1,0.1-0.1,0.1-0.1h0.3c0.1,0,0.1,0.1,0.1,0.1v4.1h2c0.1,0,0.1,0.1,0.1,0.1v0.2
			c0,0.1-0.1,0.1-0.1,0.1h-2.3c-0.1,0-0.1-0.1-0.1-0.1V99.9z"/>
		<path class="st3" d="M57.2,102.3l-1.6-2.3c-0.1-0.1,0-0.2,0.1-0.2H56c0,0,0.1,0,0.1,0.1l1.4,1.9l1.4-1.9c0,0,0.1-0.1,0.1-0.1h0.3
			c0.1,0,0.2,0.1,0.1,0.2l-1.7,2.2v2.2c0,0.1-0.1,0.1-0.1,0.1h-0.3c-0.1,0-0.1-0.1-0.1-0.1V102.3z"/>
		<path class="st3" d="M68.1,100.3h-1.2c-0.1,0-0.1-0.1-0.1-0.1v-0.2c0-0.1,0.1-0.1,0.1-0.1h2.9c0.1,0,0.1,0.1,0.1,0.1v0.2
			c0,0.1-0.1,0.1-0.1,0.1h-1.2v4.1c0,0.1-0.1,0.1-0.1,0.1h-0.3c-0.1,0-0.1-0.1-0.1-0.1V100.3z"/>
		<path class="st3" d="M77.8,99.9c0-0.1,0.1-0.1,0.1-0.1h2.7c0.1,0,0.1,0.1,0.1,0.1v0.2c0,0.1-0.1,0.1-0.1,0.1h-2.3v1.6h1.9
			c0.1,0,0.1,0.1,0.1,0.1v0.2c0,0.1-0.1,0.1-0.1,0.1h-1.9v1.7h2.3c0.1,0,0.1,0.1,0.1,0.1v0.2c0,0.1-0.1,0.1-0.1,0.1h-2.7
			c-0.1,0-0.1-0.1-0.1-0.1V99.9z"/>
		<path class="st3" d="M91,99.7c0.7,0,1.2,0.2,1.6,0.6c0.1,0.1,0.1,0.1,0,0.2l-0.2,0.2c-0.1,0.1-0.1,0.1-0.2,0
			c-0.4-0.3-0.8-0.5-1.3-0.5c-1.1,0-1.9,0.9-1.9,1.9c0,1,0.8,1.9,1.9,1.9c0.6,0,0.9-0.2,1.3-0.5c0.1-0.1,0.1,0,0.2,0l0.2,0.2
			c0.1,0,0,0.1,0,0.2c-0.5,0.4-1,0.7-1.6,0.7c-1.4,0-2.4-1.1-2.4-2.4C88.5,100.8,89.6,99.7,91,99.7"/>
		<path class="st3" d="M100.8,99.9c0-0.1,0.1-0.1,0.1-0.1h0.3c0.1,0,0.1,0.1,0.1,0.1v2h2.8v-2c0-0.1,0.1-0.1,0.1-0.1h0.3
			c0.1,0,0.1,0.1,0.1,0.1v4.5c0,0.1-0.1,0.1-0.1,0.1h-0.3c-0.1,0-0.1-0.1-0.1-0.1v-2h-2.8v2c0,0.1-0.1,0.1-0.1,0.1h-0.3
			c-0.1,0-0.1-0.1-0.1-0.1V99.9z"/>
		<path class="st3" d="M113.1,99.9c0-0.1,0.1-0.1,0.1-0.1h0.2l3.1,3.8h0v-3.6c0-0.1,0.1-0.1,0.1-0.1h0.2c0.1,0,0.1,0.1,0.1,0.1v4.5
			c0,0.1-0.1,0.1-0.1,0.1h-0.1l-3.1-3.9h0v3.7c0,0.1-0.1,0.1-0.1,0.1h-0.2c-0.1,0-0.1-0.1-0.1-0.1V99.9z"/>
		<path class="st3" d="M125.4,99.9c0-0.1,0.1-0.1,0.1-0.1h0.3c0.1,0,0.1,0.1,0.1,0.1v4.5c0,0.1-0.1,0.1-0.1,0.1h-0.3
			c-0.1,0-0.1-0.1-0.1-0.1V99.9z"/>
		<path class="st3" d="M136.5,99.7c0.7,0,1.2,0.2,1.6,0.6c0.1,0.1,0.1,0.1,0,0.2l-0.2,0.2c-0.1,0.1-0.1,0.1-0.2,0
			c-0.4-0.3-0.8-0.5-1.3-0.5c-1.1,0-1.9,0.9-1.9,1.9c0,1,0.8,1.9,1.9,1.9c0.6,0,0.9-0.2,1.3-0.5c0.1-0.1,0.1,0,0.2,0l0.2,0.2
			c0.1,0,0,0.1,0,0.2c-0.5,0.4-1,0.7-1.6,0.7c-1.4,0-2.4-1.1-2.4-2.4C134.1,100.8,135.2,99.7,136.5,99.7"/>
		<path class="st3" d="M21.9,108.8c0-0.1,0.1-0.3,0.3-0.3h0.5c0.2,0,0.3,0.1,0.3,0.3v5.6c0,1.5,1,2.7,2.6,2.7c1.6,0,2.6-1.2,2.6-2.7
			v-5.7c0-0.1,0.1-0.3,0.3-0.3h0.5c0.1,0,0.3,0.1,0.3,0.3v5.7c0,2.1-1.5,3.6-3.6,3.6c-2.1,0-3.6-1.6-3.6-3.6V108.8z"/>
		<path class="st3" d="M36.4,108.7c0-0.1,0.1-0.2,0.3-0.2H37l6.1,7.6h0v-7.2c0-0.1,0.1-0.3,0.3-0.3h0.5c0.1,0,0.3,0.1,0.3,0.3v9.1
			c0,0.1-0.1,0.2-0.3,0.2h-0.2l-6.2-7.7h0v7.3c0,0.1-0.1,0.3-0.3,0.3h-0.5c-0.1,0-0.3-0.1-0.3-0.3V108.7z"/>
		<path class="st3" d="M51.6,108.8c0-0.1,0.1-0.3,0.3-0.3h0.5c0.1,0,0.3,0.1,0.3,0.3v8.9c0,0.1-0.1,0.3-0.3,0.3h-0.5
			c-0.1,0-0.3-0.1-0.3-0.3V108.8z"/>
		<path class="st3" d="M58.8,108.9c-0.1-0.2,0-0.4,0.2-0.4h0.5c0.1,0,0.2,0.1,0.2,0.1l3.4,7.6h0.1l3.4-7.6c0-0.1,0.1-0.1,0.2-0.1
			h0.5c0.2,0,0.3,0.2,0.2,0.4l-4.1,9.1c0,0.1-0.1,0.1-0.2,0.1h-0.1c-0.1,0-0.2-0.1-0.2-0.1L58.8,108.9z"/>
		<path class="st3" d="M73.8,108.8c0-0.1,0.1-0.3,0.3-0.3h5.3c0.2,0,0.3,0.1,0.3,0.3v0.4c0,0.1-0.1,0.3-0.3,0.3h-4.6v3.3h3.9
			c0.1,0,0.3,0.1,0.3,0.3v0.4c0,0.1-0.1,0.3-0.3,0.3h-3.9v3.4h4.6c0.2,0,0.3,0.1,0.3,0.3v0.4c0,0.1-0.1,0.3-0.3,0.3h-5.3
			c-0.2,0-0.3-0.1-0.3-0.3V108.8z"/>
		<path class="st3" d="M90.2,113.4c1,0,2-0.9,2-2c0-1-0.9-1.9-2-1.9h-2.6v3.9H90.2z M86.5,108.8c0-0.1,0.1-0.3,0.3-0.3h3.5
			c1.6,0,3,1.3,3,2.9c0,1.2-0.8,2.3-2,2.8l1.9,3.4c0.1,0.2,0,0.4-0.2,0.4h-0.7c-0.1,0-0.2-0.1-0.2-0.1l-1.8-3.6h-2.6v3.4
			c0,0.1-0.1,0.3-0.3,0.3h-0.5c-0.2,0-0.3-0.1-0.3-0.3V108.8z"/>
		<path class="st3" d="M99.6,116.6c0.1-0.1,0.1-0.2,0.2-0.3c0.1-0.2,0.3-0.3,0.5-0.1c0.1,0.1,1.1,1,2.3,1c1.1,0,1.8-0.7,1.8-1.5
			c0-0.9-0.8-1.5-2.4-2.1c-1.5-0.6-2.4-1.3-2.4-2.8c0-0.9,0.7-2.4,2.9-2.4c1.3,0,2.3,0.7,2.3,0.7c0.1,0,0.2,0.2,0.1,0.5
			c-0.1,0.1-0.1,0.2-0.2,0.3c-0.1,0.2-0.3,0.2-0.5,0.1c-0.1-0.1-0.9-0.6-1.8-0.6c-1.4,0-1.9,0.9-1.9,1.5c0,0.9,0.7,1.4,1.8,1.9
			c1.8,0.7,3,1.4,3,3c0,1.4-1.3,2.4-2.9,2.4c-1.6,0-2.7-0.9-2.9-1.1C99.6,117,99.4,116.9,99.6,116.6"/>
		<path class="st3" d="M112.1,108.8c0-0.1,0.1-0.3,0.3-0.3h0.5c0.1,0,0.3,0.1,0.3,0.3v8.9c0,0.1-0.1,0.3-0.3,0.3h-0.5
			c-0.1,0-0.3-0.1-0.3-0.3V108.8z"/>
		<path class="st3" d="M122,109.5h-2.4c-0.1,0-0.3-0.1-0.3-0.3v-0.4c0-0.1,0.1-0.3,0.3-0.3h5.8c0.1,0,0.3,0.1,0.3,0.3v0.4
			c0,0.1-0.1,0.3-0.3,0.3H123v8.3c0,0.1-0.1,0.3-0.3,0.3h-0.5c-0.1,0-0.3-0.1-0.3-0.3V109.5z"/>
		<path class="st3" d="M134.2,113.5l-3.3-4.5c-0.1-0.2,0-0.4,0.2-0.4h0.6c0.1,0,0.2,0.1,0.2,0.1l2.7,3.8l2.7-3.8
			c0-0.1,0.1-0.1,0.2-0.1h0.6c0.2,0,0.3,0.2,0.2,0.4l-3.3,4.5v4.3c0,0.1-0.1,0.3-0.3,0.3h-0.5c-0.1,0-0.3-0.1-0.3-0.3V113.5z"/>
		<path class="st4" d="M34,24.3c-2.1,0.1-4.1,0.2-6.2,0.4c-1.3-0.5-2.6-1-3.9-1.3c2.2-0.2,4.3-0.4,6.5-0.5
			C31.6,23.3,32.8,23.8,34,24.3"/>
		<path class="st4" d="M43.4,24.7c-1.8-0.2-3.5-0.3-5.3-0.4c-1.2-0.5-2.3-1-3.5-1.5c1.8,0,3.7,0.1,5.5,0.3
			C41.2,23.7,42.3,24.2,43.4,24.7"/>
		<path class="st4" d="M51.5,26.3c-1.5-0.4-3.1-0.8-4.6-1.1c-1-0.6-2.1-1.1-3.2-1.5c1.6,0.3,3.2,0.6,4.7,1
			C49.5,25.2,50.5,25.7,51.5,26.3"/>
		<path class="st4" d="M40,27.7c-2,0-3.9,0.2-5.9,0.3c-1.3-0.8-2.6-1.5-3.9-2.2c2-0.2,4-0.3,6.1-0.4C37.5,26.2,38.8,26.9,40,27.7"/>
		<path class="st4" d="M48.8,28.1c-1.7-0.2-3.3-0.3-5-0.4c-1.1-0.8-2.3-1.5-3.5-2.2c1.7,0.1,3.5,0.2,5.2,0.4
			C46.6,26.6,47.7,27.4,48.8,28.1"/>
		<path class="st4" d="M56.5,29.7c-1.4-0.4-2.9-0.7-4.4-1c-1.1-0.8-2.2-1.5-3.3-2.2c1.5,0.3,3,0.6,4.5,1.1
			C54.5,28.2,55.5,28.9,56.5,29.7"/>
		<path class="st4" d="M63.4,32.1c-1.3-0.5-2.6-1-3.9-1.5c-1-0.7-2-1.5-3-2.1c1.4,0.5,2.7,1,4,1.5C61.5,30.7,62.5,31.4,63.4,32.1"/>
		<path class="st4" d="M46.1,32.2c-1.8,0-3.7,0.2-5.5,0.4c-1.3-1-2.6-1.9-4-2.9c1.9-0.2,3.8-0.3,5.7-0.3
			C43.6,30.2,44.9,31.2,46.1,32.2"/>
		<path class="st4" d="M54.5,32.5c-1.6-0.2-3.2-0.3-4.7-0.3c-1.2-1-2.4-1.9-3.7-2.8c1.6,0.1,3.3,0.2,4.9,0.4
			C52.2,30.6,53.3,31.6,54.5,32.5"/>
		<path class="st4" d="M61.8,33.9c-1.4-0.4-2.8-0.7-4.2-0.9c-1.1-0.9-2.2-1.8-3.4-2.7c1.4,0.3,2.9,0.6,4.3,1
			C59.7,32.1,60.7,33,61.8,33.9"/>
		<path class="st4" d="M68.4,36c-1.3-0.5-2.5-0.9-3.8-1.3c-1.1-0.9-2.1-1.7-3.2-2.6c1.3,0.4,2.6,0.9,3.9,1.4
			C66.4,34.3,67.4,35.1,68.4,36"/>
		<path class="st4" d="M74.6,38.6c-1.2-0.5-2.4-1.1-3.6-1.6c-1-0.8-2-1.6-3.1-2.4c1.2,0.6,2.4,1.1,3.6,1.7
			C72.6,37.1,73.6,37.9,74.6,38.6"/>
		<path class="st4" d="M52.4,37.5c-1.7,0.1-3.5,0.3-5.2,0.5c-1.4-1.2-2.7-2.3-4.1-3.4c1.8-0.2,3.6-0.3,5.4-0.4
			C49.8,35.2,51.1,36.3,52.4,37.5"/>
		<path class="st4" d="M60.4,37.6c-1.5-0.1-3-0.2-4.5-0.2c-1.3-1.1-2.5-2.2-3.8-3.3c1.6,0.1,3.1,0.1,4.7,0.3
			C58,35.4,59.2,36.5,60.4,37.6"/>
		<path class="st4" d="M67.4,38.6c-1.3-0.3-2.7-0.5-4-0.7c-1.2-1-2.4-2.1-3.6-3.1c1.4,0.2,2.7,0.5,4.1,0.8
			C65.1,36.6,66.3,37.6,67.4,38.6"/>
		<path class="st4" d="M73.8,40.2c-1.2-0.4-2.4-0.7-3.7-1c-1.1-0.9-2.3-1.9-3.4-2.8c1.3,0.4,2.5,0.8,3.7,1.2
			C71.6,38.5,72.7,39.4,73.8,40.2"/>
		<path class="st4" d="M79.9,42.4c-1.2-0.4-2.3-0.9-3.5-1.3c-1.1-0.8-2.2-1.7-3.3-2.5c1.2,0.5,2.4,1,3.6,1.5
			C77.7,40.8,78.8,41.6,79.9,42.4"/>
		<path class="st4" d="M85.9,44.7c-1.2-0.5-2.4-0.9-3.5-1.4c-1.1-0.7-2.2-1.4-3.2-2.2c1.2,0.5,2.4,1.1,3.6,1.6"/>
		<path class="st4" d="M59,43.4c-1.6,0.2-3.3,0.4-4.9,0.7c-1.4-1.3-2.8-2.6-4.2-3.8c1.7-0.2,3.4-0.4,5.1-0.5
			C56.3,40.9,57.6,42.2,59,43.4"/>
		<path class="st4" d="M66.6,43.1c-1.4,0-2.9,0-4.3,0.1c-1.3-1.2-2.6-2.4-3.9-3.6c1.5,0,2.9,0,4.4,0.1C64,40.8,65.3,41.9,66.6,43.1"
			/>
		<path class="st4" d="M73.3,43.6c-1.3-0.2-2.6-0.3-3.9-0.4c-1.3-1.1-2.5-2.2-3.8-3.3c1.3,0.2,2.6,0.4,3.9,0.6
			C70.9,41.5,72.1,42.5,73.3,43.6"/>
		<path class="st4" d="M79.6,44.7c-1.2-0.3-2.4-0.5-3.6-0.7c-1.2-1-2.4-2-3.6-2.9c1.2,0.3,2.4,0.6,3.6,0.9
			C77.2,42.9,78.4,43.8,79.6,44.7"/>
		<path class="st4" d="M85.5,46.1c-1.2-0.3-2.3-0.6-3.5-0.9c-1.2-0.8-2.4-1.7-3.6-2.5c1.2,0.4,2.3,0.8,3.5,1.1
			C83.2,44.6,84.3,45.4,85.5,46.1"/>
		<path class="st4" d="M91.6,47.7c-1.2-0.3-2.4-0.6-3.5-0.9c-1.2-0.7-2.4-1.4-3.5-2.1c1.2,0.4,2.4,0.8,3.5,1.2
			C89.2,46.6,90.4,47.2,91.6,47.7"/>
		<path class="st4" d="M65.8,49.7c-1.6,0.3-3.1,0.6-4.7,1c-1.5-1.4-2.9-2.7-4.4-4.1c1.6-0.3,3.2-0.6,4.8-0.8
			C63,47.1,64.4,48.4,65.8,49.7"/>
		<path class="st4" d="M73.1,48.8c-1.4,0.1-2.8,0.2-4.1,0.4c-1.4-1.2-2.8-2.5-4.1-3.7c1.4-0.1,2.8-0.2,4.2-0.2
			C70.4,46.4,71.7,47.6,73.1,48.8"/>
		<path class="st4" d="M79.6,48.6c-1.3,0-2.5,0-3.8,0c-1.3-1.1-2.7-2.2-4-3.3c1.3,0.1,2.5,0.1,3.8,0.2C77,46.6,78.3,47.6,79.6,48.6"
			/>
		<path class="st4" d="M85.8,49c-1.2-0.1-2.4-0.2-3.5-0.3c-1.3-1-2.6-1.9-3.9-2.9c1.2,0.2,2.4,0.3,3.6,0.5
			C83.2,47.3,84.5,48.1,85.8,49"/>
		<path class="st4" d="M91.7,49.6c-1.2-0.1-2.3-0.3-3.5-0.4c-1.3-0.8-2.6-1.6-3.9-2.4c1.2,0.2,2.3,0.5,3.5,0.7
			C89.1,48.3,90.4,49,91.7,49.6"/>
		<path class="st4" d="M97.8,50.4c-1.2-0.1-2.4-0.3-3.6-0.4c-1.3-0.6-2.6-1.2-3.9-1.9c1.2,0.3,2.4,0.5,3.5,0.8
			C95.2,49.4,96.5,49.9,97.8,50.4"/>
		<path class="st4" d="M104.2,50.9c-1.3-0.1-2.5-0.2-3.8-0.3c-1.3-0.4-2.6-0.8-3.9-1.3c1.3,0.2,2.5,0.5,3.8,0.7
			C101.6,50.4,102.9,50.7,104.2,50.9"/>
		<path class="st4" d="M73,56.1c-1.5,0.4-3,0.9-4.5,1.3c-1.5-1.4-3-2.8-4.5-4.2c1.5-0.4,3-0.8,4.6-1.1C70,53.5,71.5,54.8,73,56.1"/>
		<path class="st4" d="M80,54.5c-1.3,0.3-2.7,0.5-4,0.9c-1.5-1.2-2.9-2.5-4.4-3.7c1.4-0.2,2.7-0.4,4.1-0.6
			C77.1,52.2,78.5,53.3,80,54.5"/>
		<path class="st4" d="M86.4,53.5c-1.2,0.1-2.5,0.3-3.7,0.5c-1.4-1.1-2.8-2.1-4.2-3.3c1.2-0.1,2.5-0.2,3.7-0.2
			C83.6,51.5,85,52.5,86.4,53.5"/>
		<path class="st4" d="M92.5,52.9c-1.2,0.1-2.4,0.2-3.5,0.3c-1.4-0.9-2.8-1.8-4.2-2.7c1.2,0,2.4,0,3.5,0.1
			C89.7,51.4,91.1,52.2,92.5,52.9"/>
		<path class="st4" d="M98.5,52.6c-1.2,0.1-2.3,0.1-3.5,0.2c-1.4-0.7-2.8-1.4-4.2-2.1c1.2,0.1,2.3,0.1,3.5,0.2
			C95.7,51.5,97.1,52.1,98.5,52.6"/>
		<path class="st4" d="M104.7,52.3c-1.2,0.1-2.4,0.1-3.6,0.2c-1.4-0.4-2.9-1-4.3-1.5c1.2,0.1,2.4,0.1,3.6,0.2
			C101.8,51.6,103.3,52,104.7,52.3"/>
		<path class="st4" d="M111.3,51.8c-1.3,0.1-2.6,0.2-3.9,0.3c-1.5-0.2-2.9-0.5-4.4-0.8c1.3,0,2.6,0.1,3.8,0.1
			C108.3,51.6,109.8,51.7,111.3,51.8"/>
		<path class="st4" d="M80.5,62.4c-1.4,0.6-2.9,1.2-4.3,1.8c-1.6-1.4-3.2-2.7-4.7-4.1c1.4-0.5,2.9-1,4.4-1.5
			C77.4,59.8,78.9,61.1,80.5,62.4"/>
		<path class="st4" d="M87.3,59.9c-1.3,0.4-2.6,0.9-3.9,1.4c-1.6-1.2-3.1-2.4-4.6-3.6c1.3-0.4,2.6-0.7,4-1.1
			C84.2,57.7,85.8,58.8,87.3,59.9"/>
		<path class="st4" d="M93.7,57.9c-1.2,0.3-2.5,0.7-3.7,1.1c-1.5-1-3-2-4.5-3c1.2-0.3,2.5-0.5,3.7-0.7
			C90.6,56.2,92.1,57.1,93.7,57.9"/>
		<path class="st4" d="M99.8,56.3c-1.2,0.3-2.4,0.6-3.6,0.9c-1.5-0.8-3-1.6-4.5-2.4c1.2-0.2,2.4-0.3,3.5-0.5
			C96.8,55,98.3,55.7,99.8,56.3"/>
		<path class="st4" d="M106,54.9c-1.2,0.3-2.4,0.6-3.6,0.8c-1.5-0.5-3.1-1.1-4.6-1.7c1.2-0.1,2.4-0.3,3.5-0.4
			C102.9,54.1,104.4,54.5,106,54.9"/>
		<path class="st4" d="M112.3,53.4c-1.3,0.3-2.5,0.6-3.8,0.9c-1.6-0.3-3.1-0.6-4.7-1c1.2-0.1,2.5-0.3,3.7-0.5
			C109.1,53.1,110.7,53.3,112.3,53.4"/>
		<path class="st4" d="M119.2,51.6c-1.3,0.4-2.7,0.7-4,1.1c-1.6,0-3.2-0.1-4.8-0.2c1.3-0.2,2.6-0.4,4-0.6
			C115.9,51.8,117.5,51.7,119.2,51.6"/>
		<path class="st4" d="M88.5,68.4c-1.4,0.8-2.8,1.6-4.2,2.4c-1.7-1.3-3.3-2.6-5-3.9c1.4-0.7,2.8-1.4,4.2-2
			C85.2,66,86.8,67.2,88.5,68.4"/>
		<path class="st4" d="M95.2,64.8c-1.3,0.7-2.6,1.3-3.9,2c-1.7-1.1-3.3-2.2-4.9-3.3c1.3-0.6,2.6-1.1,3.9-1.6
			C92,62.9,93.6,63.9,95.2,64.8"/>
		<path class="st4" d="M101.6,61.7c-1.2,0.6-2.5,1.2-3.7,1.8c-1.6-0.8-3.3-1.7-4.9-2.6c1.2-0.5,2.5-0.9,3.7-1.3
			C98.3,60.3,100,61,101.6,61.7"/>
		<path class="st4" d="M107.9,58.9c-1.2,0.5-2.4,1.1-3.7,1.6c-1.7-0.6-3.3-1.2-4.9-1.9c1.2-0.4,2.4-0.8,3.6-1.2
			C104.6,58,106.2,58.5,107.9,58.9"/>
		<path class="st4" d="M114.3,56.2c-1.2,0.5-2.5,1.1-3.7,1.6c-1.7-0.3-3.4-0.7-5-1.1c1.2-0.4,2.4-0.7,3.6-1.1
			C110.8,55.8,112.5,56,114.3,56.2"/>
		<path class="st4" d="M120.9,53.3c-1.3,0.6-2.6,1.1-3.9,1.7c-1.7,0-3.4-0.1-5.2-0.3c1.3-0.4,2.6-0.8,3.8-1.2
			C117.4,53.5,119.1,53.4,120.9,53.3"/>
		<path class="st4" d="M128,50.1c-1.4,0.7-2.8,1.3-4.2,1.9c-1.8,0.3-3.6,0.5-5.4,0.6c1.4-0.5,2.7-0.9,4.1-1.4
			C124.4,50.9,126.2,50.5,128,50.1"/>
		<path class="st4" d="M96.9,73.6c-1.4,1-2.7,2-4.1,3c-1.8-1.2-3.5-2.3-5.2-3.6c1.4-0.9,2.7-1.8,4.1-2.6
			C93.4,71.6,95.1,72.6,96.9,73.6"/>
		<path class="st4" d="M103.6,68.9c-1.3,0.9-2.6,1.8-3.9,2.7c-1.8-0.9-3.5-1.9-5.2-2.8c1.3-0.8,2.6-1.5,3.9-2.3
			C100.1,67.3,101.8,68.1,103.6,68.9"/>
		<path class="st4" d="M110.1,64.5c-1.3,0.8-2.5,1.7-3.8,2.5c-1.8-0.6-3.5-1.3-5.2-2.1c1.2-0.7,2.5-1.4,3.7-2
			C106.6,63.5,108.3,64.1,110.1,64.5"/>
		<path class="st4" d="M116.6,60.4c-1.3,0.8-2.5,1.6-3.8,2.4c-1.8-0.3-3.6-0.8-5.3-1.3c1.2-0.6,2.5-1.3,3.7-1.9
			C113,60,114.8,60.2,116.6,60.4"/>
		<path class="st4" d="M123.2,56.2c-1.3,0.8-2.6,1.6-3.9,2.4c-1.8,0-3.7-0.2-5.5-0.4c1.3-0.6,2.5-1.3,3.8-1.9
			C119.5,56.4,121.4,56.3,123.2,56.2"/>
		<path class="st4" d="M130.2,51.8c-1.4,0.9-2.8,1.7-4.1,2.6c-1.9,0.2-3.8,0.4-5.7,0.5c1.3-0.7,2.7-1.4,4-2
			C126.4,52.6,128.3,52.3,130.2,51.8"/>
		<path class="st4" d="M137.8,47c-1.5,1-3,1.9-4.5,2.9c-2,0.6-3.9,1.1-5.9,1.5c1.4-0.8,2.9-1.5,4.3-2.3
			C133.7,48.5,135.8,47.8,137.8,47"/>
	</g>
</g>
</svg>
