<svg width="808" height="807" viewBox="0 0 808 807" fill="none" xmlns="http://www.w3.org/2000/svg">
<path d="M235.876 369.875H303.126V437.125H235.876V369.875ZM235.876 504.375H303.126V571.625H235.876V504.375ZM370.376 369.875H437.626V437.125H370.376V369.875ZM370.376 504.375H437.626V571.625H370.376V504.375ZM504.876 369.875H572.126V437.125H504.876V369.875ZM504.876 504.375H572.126V571.625H504.876V504.375Z" fill="#D9D9D9"/>
<path d="M168.625 739.75H639.375C676.463 739.75 706.625 709.588 706.625 672.5V201.75C706.625 164.662 676.463 134.5 639.375 134.5H572.125V67.25H504.875V134.5H303.125V67.25H235.875V134.5H168.625C131.537 134.5 101.375 164.662 101.375 201.75V672.5C101.375 709.588 131.537 739.75 168.625 739.75ZM639.375 269L639.409 672.5H168.625V269H639.375Z" fill="#D9D9D9"/>
</svg>
