<svg xmlns="http://www.w3.org/2000/svg" viewBox="0 0 840 852.71"><defs><style>.cls-1{fill:#fff;}</style></defs><g id="Calque_2" data-name="Calque 2"><g id="Calque_1-2" data-name="Calque 1"><path class="cls-1" d="M0,132.31C8.15,112.7,20.86,96.54,36.87,82.72c19.66-17,42.75-24.47,68.95-25.75.29,3.9.79,7.8.84,11.71.24,16.16.09,32.33.55,48.49.62,22.34,15.62,42.76,36.54,49.51,30.26,9.77,54.75-.19,70.78-26.36,4.46-7.27,5.28-15.33,5.43-23.56.35-18.66.64-37.32,1-56,0-1.16.14-2.32.23-3.91h84.65c.09,1.8.23,3.57.26,5.35.35,18.49,1.12,37,.91,55.48-.28,24.53,19.82,45.2,39.92,50.31,30.75,7.81,54.27-4.84,67.42-29.24,2.95-5.47,4.23-12.33,4.52-18.63.88-18.63.87-37.31,1.2-56,0-2.31,0-4.61,0-7.43,2.22-.12,4-.31,5.75-.31,24.83,0,49.67.11,74.5-.09,4.3,0,5.25,1.4,5.23,5.42-.09,18.33-.3,36.67.31,55,.92,27.53,21.32,49.45,48.61,53.08,30.66,4.07,59.55-16.1,63.92-45.16,1.15-7.68.73-15.62.79-23.44.1-14.63,0-29.26,0-45,9.07,1.51,17.67,2.27,25.91,4.41,40.09,10.41,67,35.77,81.72,74.09,5.81,15.18,4.89,31.56,5,47.5.64,71.49.88,143,1.26,214.48q.1,19.75.2,39.5v5.93c-10-3-19.35-6.07-28.81-8.56a211.85,211.85,0,0,0-23-4.78c-4.21-.63-5.38-2.12-5.36-6.33.15-43.66.08-87.33.07-131v-6.76H50.36c-.09,1.67-.28,3.43-.28,5.19q.16,101.75.38,203.49.2,86,.63,172a28.31,28.31,0,0,0,2.83,11.31c7.13,15.34,19.19,25.74,34.31,32.77a15.38,15.38,0,0,0,6.28,1q162.24.51,324.47.93c7.88,0,7.53.14,10.39,7.66,5.56,14.6,11.56,29.05,17.39,43.55.67,1.66,1.46,3.28,2.49,5.59-2.3.12-4,.3-5.76.3q-163.47-.71-326.95-1.56c-13.26-.09-27.11.09-39.63-3.53C44.15,753.92,20.07,733,4.84,702.19c-1.62-3.27-3.23-6.56-4.84-9.84Z"/><path class="cls-1" d="M840,705.35c-2.76,7.81-5.23,15.73-8.32,23.41C801,805.2,725.09,854.63,642.75,852.65c-97.32-2.34-165.78-71.18-184.67-140.8-19.7-72.62-6.17-138.8,46.91-194.37,44.55-46.64,99.75-66.67,163.59-60.27,80.93,8.12,147.28,64.86,170.32,143.42.28.93.73,1.81,1.1,2.71ZM647.37,797c79.89-.13,142-62.9,142.94-142.32.93-78.38-66.09-143.57-143.95-142.91-67.83.57-140.85,56.11-141.07,141.91C505.09,733.2,568.79,797.15,647.37,797Z"/><path class="cls-1" d="M362.77,570.36c10.48,0,21-.41,31.44.1,13.56.66,22.92,9.25,23.93,22.83a249.17,249.17,0,0,1,.05,36.35c-1,14.12-9.95,22.93-23.9,23.37-20.79.65-41.62.58-62.41,0-13-.36-22.45-9.1-23.74-22.09a265.44,265.44,0,0,1-.82-36.34c.42-10.9,11.93-24.86,26-24.45,9.81.28,19.63,0,29.45,0Z"/><path class="cls-1" d="M192.06,570.32c10.15,0,20.32-.36,30.45.08,14.36.63,23.74,8.7,25,22.93a213.25,213.25,0,0,1,0,36.88C246.29,644.12,237,652.68,223,653.07q-30.69.82-61.43,0c-13.56-.38-23.06-9.14-24.33-22.66a228.58,228.58,0,0,1-.46-36.35c.86-13,12.49-23.09,25.37-23.79,3.32-.19,6.65-.4,10-.43,6.66-.07,13.32,0,20,0Z"/><path class="cls-1" d="M362.51,456.46c10.48,0,21-.47,31.44.11,14.25.8,23.14,8.94,24.2,23.06a253.07,253.07,0,0,1,0,36.84c-1,13.41-10.09,22.19-23.56,22.57q-31.44.9-62.91.05c-12.62-.33-22.26-9.27-23.48-21.8a265.53,265.53,0,0,1-.88-36.34c.46-11.44,12.19-25.1,25.79-24.7,5,.14,10-.35,15-.43,4.83-.08,9.65,0,14.48,0Z"/><path class="cls-1" d="M191.6,456.39c10.31,0,20.65-.37,31,.09,14.15.65,23.62,8.64,24.79,22.51a219.79,219.79,0,0,1-.23,38.82c-1.2,12.77-10.78,21-23.7,21.31q-30.94.72-61.92,0c-12.88-.31-22.56-8.47-24-21.25a215.53,215.53,0,0,1-.52-39.27c.92-12.11,12.86-21.67,25.12-22.29,2.66-.14,5.32-.33,8-.35,7.16-.05,14.32,0,21.48,0Z"/><path class="cls-1" d="M533.76,425.39c-9.49,0-19,.2-28.46,0-15.74-.4-25.72-9.32-27-25a241.6,241.6,0,0,1-.31-32.4,26.89,26.89,0,0,1,26.45-25.47c19.3-.38,38.63-.47,57.93,0,17.28.46,26.42,9.64,27.14,26.82a265.63,265.63,0,0,1-.36,32.42c-1.16,14.52-10.91,23.09-25.43,23.66-3,.12-6,.19-9,.2-7,0-14,0-21,0Z"/><path class="cls-1" d="M192.45,425.4c-9.82,0-19.65.2-29.46,0-14.52-.36-24.5-8.9-25.86-23.33a223.82,223.82,0,0,1-.61-34.35c.88-14.41,12.18-25,26.63-25.28,18.8-.43,37.61-.25,56.41,0a34.71,34.71,0,0,1,13.12,2.49c8.21,3.58,14.25,9.76,14.6,19.22.48,13.1,1,26.3-.08,39.32-1.16,13.35-10.8,21.32-24.31,21.81-10.13.37-20.29.08-30.45.08Z"/><path class="cls-1" d="M362.77,425.42c-9.65,0-19.31.16-28.95,0-14.52-.31-24.49-8.84-25.85-23.29a289.56,289.56,0,0,1-.8-34.36c.27-11.41,11.89-25.68,26.19-25.45,19.47.3,38.95-.28,58.41.25,16.79.46,25.64,8.83,26.74,25.49a237.53,237.53,0,0,1-.42,34.88c-1.08,13.38-10.78,21.7-24.36,22.42q-4.25.23-8.49.24c-7.49,0-15,0-22.47,0Z"/><path class="cls-1" d="M589.62,71c0,14.14,0,28.28,0,42.43,0,11.48-5,19.84-15.36,24.71S554,141.54,544.6,135c-5.89-4.13-8.21-10-8.64-16.67-.72-11.28-1.38-22.59-1.46-33.9-.13-18.8,0-37.6.44-56.4.25-12.26,8.9-23.53,19.78-26.69C571.09-3.45,589.26,9.41,590,27c.65,14.61.13,29.28.13,43.93Z"/><path class="cls-1" d="M390.21,71.8c0,14.47.11,29,0,43.42-.12,12.45-7.1,20.07-18.28,24.08-11.61,4.18-21.9.92-30-7.74-2.91-3.1-4.64-8.27-5-12.65-1.12-14.58-1.7-29.23-1.85-43.86-.16-15.81.22-31.62.69-47.42C336.22,12.76,348.62.24,362.68,0,376.27-.23,390,12.94,390.91,27.37c.45,7.46.34,15,.4,22.46.06,7.32,0,14.65,0,22Z"/><path class="cls-1" d="M191,70.82c0,14.17-.08,28.33,0,42.5.09,12-5.28,20.35-16.21,25.15-11.33,5-21.69,2.66-30.59-5.24-2.89-2.56-4.94-6.77-5.92-10.6a67.2,67.2,0,0,1-1.8-16.33c-.12-27-.31-54,.23-81C137,13.07,148,2.18,159.86.66c12.5-1.59,30.86,7,31,24.67.08,15.16,0,30.33,0,45.49Z"/><path class="cls-1" d="M676.45,626.44c13.24,0,25.55-.1,37.86,0,7.16.08,14.32.4,21.47.87a26.46,26.46,0,0,1,24.84,26.93c-.07,13.93-10.71,27.18-25.13,27.16-29.82-.06-59.64.29-89.45-.09-14.87-.19-24.3-8.68-24.76-23.34-.94-30-1.09-60-.84-89.93.1-12.09,7.07-21,18.3-25.11,10.8-4,20.67-.7,29,7.08A22.72,22.72,0,0,1,675,566.54q.79,25.47,1.47,51C676.5,620,676.45,622.45,676.45,626.44Z"/></g></g></svg>