<svg width="840" height="853" viewBox="0 0 840 853" fill="none" xmlns="http://www.w3.org/2000/svg">
<g clip-path="url(#clip0_182_250)">
<path d="M0 132.31C8.15 112.7 20.86 96.5404 36.87 82.7204C56.53 65.7204 79.62 58.2504 105.82 56.9704C106.11 60.8704 106.61 64.7704 106.66 68.6804C106.9 84.8404 106.75 101.01 107.21 117.17C107.83 139.51 122.83 159.93 143.75 166.68C174.01 176.45 198.5 166.49 214.53 140.32C218.99 133.05 219.81 124.99 219.96 116.76C220.31 98.1004 220.6 79.4404 220.96 60.7604C220.96 59.6004 221.1 58.4404 221.19 56.8504H305.84C305.93 58.6504 306.07 60.4204 306.1 62.2004C306.45 80.6904 307.22 99.2004 307.01 117.68C306.73 142.21 326.83 162.88 346.93 167.99C377.68 175.8 401.2 163.15 414.35 138.75C417.3 133.28 418.58 126.42 418.87 120.12C419.75 101.49 419.74 82.8104 420.07 64.1204C420.07 61.8104 420.07 59.5104 420.07 56.6904C422.29 56.5704 424.07 56.3804 425.82 56.3804C450.65 56.3804 475.49 56.4904 500.32 56.2904C504.62 56.2904 505.57 57.6904 505.55 61.7104C505.46 80.0404 505.25 98.3804 505.86 116.71C506.78 144.24 527.18 166.16 554.47 169.79C585.13 173.86 614.02 153.69 618.39 124.63C619.54 116.95 619.12 109.01 619.18 101.19C619.28 86.5604 619.18 71.9304 619.18 56.1904C628.25 57.7004 636.85 58.4604 645.09 60.6004C685.18 71.0104 712.09 96.3704 726.81 134.69C732.62 149.87 731.7 166.25 731.81 182.19C732.45 253.68 732.69 325.19 733.07 396.67C733.137 409.837 733.203 423.004 733.27 436.17V442.1C723.27 439.1 713.92 436.03 704.46 433.54C696.888 431.523 689.209 429.927 681.46 428.76C677.25 428.13 676.08 426.64 676.1 422.43C676.25 378.77 676.18 335.1 676.17 291.43V284.67H50.36C50.27 286.34 50.08 288.1 50.08 289.86C50.1867 357.694 50.3133 425.524 50.46 493.35C50.5933 550.684 50.8033 608.017 51.09 665.35C51.2384 669.276 52.2022 673.128 53.92 676.66C61.05 692 73.11 702.4 88.23 709.43C90.2308 710.198 92.3699 710.538 94.51 710.43C202.67 710.77 310.827 711.08 418.98 711.36C426.86 711.36 426.51 711.5 429.37 719.02C434.93 733.62 440.93 748.07 446.76 762.57C447.43 764.23 448.22 765.85 449.25 768.16C446.95 768.28 445.25 768.46 443.49 768.46C334.51 767.987 225.527 767.467 116.54 766.9C103.28 766.81 89.43 766.99 76.91 763.37C44.15 753.92 20.07 733 4.84 702.19C3.22 698.92 1.61 695.63 0 692.35V132.31Z" fill="black"/>
<path d="M840 705.35C837.24 713.16 834.77 721.08 831.68 728.76C801 805.2 725.09 854.63 642.75 852.65C545.43 850.31 476.97 781.47 458.08 711.85C438.38 639.23 451.91 573.05 504.99 517.48C549.54 470.84 604.74 450.81 668.58 457.21C749.51 465.33 815.86 522.07 838.9 600.63C839.18 601.56 839.63 602.44 840 603.34V705.35ZM647.37 797C727.26 796.87 789.37 734.1 790.31 654.68C791.24 576.3 724.22 511.11 646.36 511.77C578.53 512.34 505.51 567.88 505.29 653.68C505.09 733.2 568.79 797.15 647.37 797Z" fill="black"/>
<path d="M362.77 570.36C373.25 570.36 383.77 569.95 394.21 570.46C407.77 571.12 417.13 579.71 418.14 593.29C419.042 605.389 419.058 617.538 418.19 629.64C417.19 643.76 408.24 652.57 394.29 653.01C373.5 653.66 352.67 653.59 331.88 653.01C318.88 652.65 309.43 643.91 308.14 630.92C307.037 618.84 306.763 606.698 307.32 594.58C307.74 583.68 319.25 569.72 333.32 570.13C343.13 570.41 352.95 570.13 362.77 570.13V570.36Z" fill="black"/>
<path d="M192.06 570.32C202.21 570.32 212.38 569.96 222.51 570.4C236.87 571.03 246.25 579.1 247.51 593.33C248.575 605.6 248.575 617.939 247.51 630.21C246.29 644.12 237 652.68 223 653.07C202.54 653.616 182.063 653.616 161.57 653.07C148.01 652.69 138.51 643.93 137.24 630.41C136.122 618.324 135.968 606.169 136.78 594.06C137.64 581.06 149.27 570.97 162.15 570.27C165.47 570.08 168.8 569.87 172.15 569.84C178.81 569.77 185.47 569.84 192.15 569.84L192.06 570.32Z" fill="black"/>
<path d="M362.51 456.46C372.99 456.46 383.51 455.99 393.95 456.57C408.2 457.37 417.09 465.51 418.15 479.63C419.045 491.893 419.045 504.206 418.15 516.47C417.15 529.88 408.06 538.66 394.59 539.04C373.63 539.64 352.66 539.656 331.68 539.09C319.06 538.76 309.42 529.82 308.2 517.29C307.077 505.211 306.783 493.069 307.32 480.95C307.78 469.51 319.51 455.85 333.11 456.25C338.11 456.39 343.11 455.9 348.11 455.82C352.94 455.74 357.76 455.82 362.59 455.82L362.51 456.46Z" fill="black"/>
<path d="M191.6 456.39C201.91 456.39 212.25 456.02 222.6 456.48C236.75 457.13 246.22 465.12 247.39 478.99C248.458 491.911 248.381 504.902 247.16 517.81C245.96 530.58 236.38 538.81 223.46 539.12C202.833 539.6 182.193 539.6 161.54 539.12C148.66 538.81 138.98 530.65 137.54 517.87C136.172 504.823 135.998 491.678 137.02 478.6C137.94 466.49 149.88 456.93 162.14 456.31C164.8 456.17 167.46 455.98 170.14 455.96C177.3 455.91 184.46 455.96 191.62 455.96L191.6 456.39Z" fill="black"/>
<path d="M533.76 425.39C524.27 425.39 514.76 425.59 505.3 425.39C489.56 424.99 479.58 416.07 478.3 400.39C477.472 389.609 477.368 378.785 477.99 367.99C478.349 361.182 481.281 354.766 486.191 350.037C491.101 345.309 497.624 342.622 504.44 342.52C523.74 342.14 543.07 342.05 562.37 342.52C579.65 342.98 588.79 352.16 589.51 369.34C590.05 380.144 589.93 390.971 589.15 401.76C587.99 416.28 578.24 424.85 563.72 425.42C560.72 425.54 557.72 425.61 554.72 425.62C547.72 425.62 540.72 425.62 533.72 425.62L533.76 425.39Z" fill="black"/>
<path d="M192.45 425.4C182.63 425.4 172.8 425.6 162.99 425.4C148.47 425.04 138.49 416.5 137.13 402.07C136.047 390.653 135.843 379.169 136.52 367.72C137.4 353.31 148.7 342.72 163.15 342.44C181.95 342.01 200.76 342.19 219.56 342.44C224.053 342.413 228.509 343.259 232.68 344.93C240.89 348.51 246.93 354.69 247.28 364.15C247.76 377.25 248.28 390.45 247.2 403.47C246.04 416.82 236.4 424.79 222.89 425.28C212.76 425.65 202.6 425.36 192.44 425.36L192.45 425.4Z" fill="black"/>
<path d="M362.77 425.42C353.12 425.42 343.46 425.58 333.82 425.42C319.3 425.11 309.33 416.58 307.97 402.13C307.023 390.703 306.756 379.229 307.17 367.77C307.44 356.36 319.06 342.09 333.36 342.32C352.83 342.62 372.31 342.04 391.77 342.57C408.56 343.03 417.41 351.4 418.51 368.06C419.225 379.681 419.085 391.339 418.09 402.94C417.01 416.32 407.31 424.64 393.73 425.36C390.897 425.513 388.067 425.593 385.24 425.6C377.75 425.6 370.24 425.6 362.77 425.6V425.42Z" fill="black"/>
<path d="M589.62 71C589.62 85.14 589.62 99.28 589.62 113.43C589.62 124.91 584.62 133.27 574.26 138.14C563.9 143.01 554 141.54 544.6 135C538.71 130.87 536.39 125 535.96 118.33C535.24 107.05 534.58 95.74 534.5 84.43C534.37 65.63 534.5 46.83 534.94 28.03C535.19 15.77 543.84 4.5 554.72 1.34C571.09 -3.45 589.26 9.41 590 27C590.65 41.61 590.13 56.28 590.13 70.93L589.62 71Z" fill="black"/>
<path d="M390.21 71.8C390.21 86.27 390.32 100.8 390.21 115.22C390.09 127.67 383.11 135.29 371.93 139.3C360.32 143.48 350.03 140.22 341.93 131.56C339.02 128.46 337.29 123.29 336.93 118.91C335.81 104.33 335.23 89.68 335.08 75.05C334.92 59.24 335.3 43.43 335.77 27.63C336.22 12.76 348.62 0.240039 362.68 3.8852e-05C376.27 -0.229961 390 12.94 390.91 27.37C391.36 34.83 391.25 42.37 391.31 49.83C391.37 57.15 391.31 64.48 391.31 71.83L390.21 71.8Z" fill="black"/>
<path d="M191 70.8204C191 84.9904 190.92 99.1504 191 113.32C191.09 125.32 185.72 133.67 174.79 138.47C163.46 143.47 153.1 141.13 144.2 133.23C141.31 130.67 139.26 126.46 138.28 122.63C137.014 117.281 136.41 111.797 136.48 106.3C136.36 79.3004 136.17 52.3004 136.71 25.3004C137 13.0704 148 2.18041 159.86 0.660415C172.36 -0.929585 190.72 7.66042 190.86 25.3304C190.94 40.4904 190.86 55.6604 190.86 70.8204H191Z" fill="black"/>
<path d="M676.45 626.44C689.69 626.44 702 626.34 714.31 626.44C721.47 626.52 728.63 626.84 735.78 627.31C742.595 627.726 748.985 630.761 753.615 635.78C758.244 640.799 760.754 647.413 760.62 654.24C760.55 668.17 749.91 681.42 735.49 681.4C705.67 681.34 675.85 681.69 646.04 681.31C631.17 681.12 621.74 672.63 621.28 657.97C620.34 627.97 620.19 597.97 620.44 568.04C620.54 555.95 627.51 547.04 638.74 542.93C649.54 538.93 659.41 542.23 667.74 550.01C670.015 552.123 671.834 554.679 673.082 557.523C674.331 560.366 674.984 563.434 675 566.54C675.527 583.52 676.017 600.52 676.47 617.54C676.5 620 676.45 622.45 676.45 626.44Z" fill="black"/>
</g>
<defs>
<clipPath id="clip0_182_250">
<rect width="840" height="852.71" fill="white"/>
</clipPath>
</defs>
</svg>
