<svg xmlns="http://www.w3.org/2000/svg" viewBox="0 0 621.33 899.48"><defs><style>.cls-1{fill:#fff;}</style></defs><g id="Calque_2" data-name="Calque 2"><g id="Calque_1-2" data-name="Calque 1"><path class="cls-1" d="M335.66,0c7,1,14.11,1.54,21,3C373,6.42,389.47,9.4,405.42,14.14c32.44,9.65,62,25.46,89.2,45.46a310.72,310.72,0,0,1,51.58,48,307.82,307.82,0,0,1,53.54,88.5c8.66,21.94,14.38,44.65,18.16,67.94,3.49,21.54,4,43.25,2.88,64.82C619.1,360.22,612.89,391,601,420.15c-7.81,19.12-17.42,37.6-27.38,55.73-17.32,31.56-35.52,62.65-53.38,93.92q-25.31,44.28-50.7,88.53c-11.89,20.71-23.95,41.32-35.86,62q-32,55.65-63.91,111.33c-10,17.41-19.56,35.11-30.2,52.12-13.48,21.58-46.28,20.58-58.87-1.09-17.34-29.84-34.36-59.86-51.56-89.76-12.41-21.57-25-43.07-37.36-64.64-13.23-23-26.32-46.12-39.54-69.15-13.79-24-27.73-47.92-41.47-71.95Q86.48,544.67,62.42,502c-11.12-19.79-22.69-39.38-32.79-59.68a272.78,272.78,0,0,1-27.26-95A391.67,391.67,0,0,1,.06,300.1a300,300,0,0,1,11.66-75.21,309.88,309.88,0,0,1,50-101.07,303,303,0,0,1,59.62-60.35A308.94,308.94,0,0,1,224.6,11.24C243.68,5.79,263.07,1.75,283,.77A5.16,5.16,0,0,0,284.66,0ZM172.45,335.92c-1,75.89,62,136,132.88,138.16,81.17,2.53,141.43-61.78,143.81-133.24A138.86,138.86,0,0,0,306.85,197.09C233.61,198.77,171,260.29,172.45,335.92Z"/></g></g></svg>